<svg xmlns="http://www.w3.org/2000/svg" xmlns:xlink="http://www.w3.org/1999/xlink" data-name="Layer 1" id="Layer_1" viewBox="0 0 140.60384 129.76306">
  <defs>
    <style>.cls-1,.cls-11,.cls-14,.cls-15,.cls-3{fill:none;}.cls-2{clip-path:url(#clip-path);}.cls-10,.cls-3,.cls-9{stroke:#0e485b;}.cls-10,.cls-14,.cls-15,.cls-3,.cls-9{stroke-linecap:round;}.cls-10,.cls-15,.cls-3,.cls-9{stroke-linejoin:round;}.cls-10,.cls-14,.cls-15,.cls-3,.cls-4,.cls-7,.cls-8,.cls-9{stroke-width:1.06687px;}.cls-10,.cls-13,.cls-4{fill:#d04600;}.cls-11,.cls-12,.cls-13,.cls-14,.cls-15,.cls-4,.cls-7,.cls-8{stroke:#0b485b;}.cls-11,.cls-12,.cls-13,.cls-14,.cls-4,.cls-7,.cls-8{stroke-miterlimit:10;}.cls-5,.cls-8{fill:#fff;}.cls-12,.cls-6,.cls-9{fill:#0b485b;}.cls-7{fill:#cedade;}.cls-11,.cls-12,.cls-13{stroke-width:1.14358px;}</style>
    <clipPath id="clip-path" transform="translate(3.97434)">
      <path class="cls-1" d="M115.91564,101.33789l6.96352-7.36522c8.64166-9.27587,13.21692-20.29777,13.21692-31.86007,0-29.63111-30.40643-53.73443-67.78146-53.73443C30.93985,8.37817.53342,32.48149.53342,62.1126c0,29.63645,30.40643,53.74725,67.7812,53.74725a83.24224,83.24224,0,0,0,23.87614-3.445l-3.64331,14.34958Z"/>
    </clipPath>
  </defs>
  <g class="cls-2">
    <line class="cls-3" x1="130.07175" x2="83.9636" y1="60.81421" y2="60.81421"/>
    <path class="cls-3" d="M120.50629,76.19868v43.11546h11.27647V66.45245a5.63873,5.63873,0,0,0-5.63824-5.63824h-.04711a5.63891,5.63891,0,0,0-5.59112,5.63824v5.27324" transform="translate(3.97434)"/>
    <path class="cls-4" d="M77.13141,60.153c-11.64036,1.49179-19.67074,47.12838-19.67074,47.12838L39.84,113.06379l3.70959,6.146h21.581l12.127-31.47565S83.97084,59.27646,77.13141,60.153Z" transform="translate(3.97434)"/>
    <path class="cls-4" d="M77.13141,60.153l12.902-2.73516,12.78,2.35642a14.33352,14.33352,0,0,1,10.11269,7.472c5.88072,11.28058,17.43228,35.23585,17.43228,49.353,0,8.27913-17.28615,2.61053-27.60919,2.61053l.91994-4.65257,9.705-7.76048-8.32429-17.02344-4.6687,29.68968s-2.11193,9.76671-27.3408,9.76671c-7.892,0,0-31.568,0-31.568A10.514,10.514,0,0,1,66.18,87.54839a36.8077,36.8077,0,0,1,.92218-7.22254" transform="translate(3.97434)"/>
    <path class="cls-5" d="M60.43233,47.52772,69.02874,105.45a2.52712,2.52712,0,0,0,2.49429,2.1535,2.66358,2.66358,0,0,0,.37365-.02772,2.52507,2.52507,0,0,0,2.1283-2.868L65.42611,46.78548a2.5228,2.5228,0,0,0-2.49183-2.1535,2.376,2.376,0,0,0-.37612.0278A2.52381,2.52381,0,0,0,60.43233,47.52772Z" transform="translate(3.97434)"/>
    <path class="cls-5" d="M-3.41265,47.52772,5.18363,105.45a2.52719,2.52719,0,0,0,2.4943,2.1535H71.523a2.52712,2.52712,0,0,1-2.49429-2.1535l-8.59641-57.9223a2.52381,2.52381,0,0,1,2.12583-2.86794,2.376,2.376,0,0,1,.37612-.0278H-.91073a2.37643,2.37643,0,0,0-.37622.0278A2.52308,2.52308,0,0,0-3.41265,47.52772Z" transform="translate(3.97434)"/>
    <path class="cls-3" d="M66.73922,90.02338,60.43233,47.52772a2.52381,2.52381,0,0,1,2.12583-2.86794,2.376,2.376,0,0,1,.37612-.0278" transform="translate(3.97434)"/>
    <line class="cls-3" x1="72.28909" x2="71.84489" y1="100.63922" y2="97.6462"/>
    <path class="cls-3" d="M71.523,107.60352a2.52712,2.52712,0,0,1-2.49429-2.1535l-.27278-1.83794" transform="translate(3.97434)"/>
    <path class="cls-3" d="M-1.28695,44.65977a2.37756,2.37756,0,0,1,.37623-.0278h63.845a2.52278,2.52278,0,0,1,2.49181,2.15351l8.59888,57.9223a2.52509,2.52509,0,0,1-2.1283,2.868,2.6635,2.6635,0,0,1-.37366.02772H7.67792A2.52721,2.52721,0,0,1,5.18362,105.45L-3.41266,47.52772A2.52309,2.52309,0,0,1-1.28695,44.65977Z" transform="translate(3.97434)"/>
    <path class="cls-5" d="M9.25778,116.2375a10.34945,10.34945,0,0,0,8.50542,4.45339h39.831v-3.02954H39.50266a7.32148,7.32148,0,0,1-7.27085-8.17469L35.9682,77.63105h4.22368l-.0026-3.02955H20.08837L8.06869,106.71211A10.34981,10.34981,0,0,0,9.25778,116.2375Z" transform="translate(3.97434)"/>
    <path class="cls-5" d="M39.50378,120.69082H57.593v-3.02954H39.50378a7.3214,7.3214,0,0,1-7.27159-8.17394L35.96807,77.632l4.22308-.001-.0005-3.02955-6.91778.00147-4.04952,34.5313a10.35095,10.35095,0,0,0,10.28043,11.55655Z" transform="translate(3.97434)"/>
    <path class="cls-3" d="M44.8236,56.09373l1.75966,11.85056Z" transform="translate(3.97434)"/>
    <path class="cls-3" d="M41.45323,56.09373l1.75966,11.85056Z" transform="translate(3.97434)"/>
    <path class="cls-3" d="M38.08287,56.09373,39.84,67.94429Z" transform="translate(3.97434)"/>
    <path class="cls-3" d="M34.7125,56.09373l1.75714,11.85056Z" transform="translate(3.97434)"/>
    <path class="cls-3" d="M31.33961,56.09373l1.75966,11.85056Z" transform="translate(3.97434)"/>
    <path class="cls-3" d="M27.96924,56.09373l1.75714,11.85056Z" transform="translate(3.97434)"/>
    <path class="cls-3" d="M24.59888,56.09373,26.356,67.94429Z" transform="translate(3.97434)"/>
    <path class="cls-3" d="M21.226,56.09373l1.75966,11.85056Z" transform="translate(3.97434)"/>
    <path class="cls-3" d="M17.85562,56.09373l1.75713,11.85056Z" transform="translate(3.97434)"/>
    <path class="cls-3" d="M14.48526,56.09373l1.75713,11.85056Z" transform="translate(3.97434)"/>
    <path class="cls-3" d="M11.11236,56.09373,12.872,67.94429Z" transform="translate(3.97434)"/>
    <path class="cls-3" d="M32.37941,117.84875a10.36138,10.36138,0,0,0,7.12437,2.84207H57.593v-3.02954H39.50378a7.3214,7.3214,0,0,1-7.27159-8.17394L35.96807,77.632l4.22308-.001-.0005-3.02955-6.91778.00147-.2799,2.38668" transform="translate(3.97434)"/>
    <path class="cls-3" d="M32.21944,83.58578l-2.99609,25.54849a10.36077,10.36077,0,0,0,1.95811,7.36014" transform="translate(3.97434)"/>
    <line class="cls-3" x1="36.72192" x2="36.58495" y1="78.92419" y2="80.09227"/>
    <path class="cls-3" d="M13.84351,91.28464,8.06868,106.71211a10.3523,10.3523,0,0,0,9.69451,13.97878h39.831" transform="translate(3.97434)"/>
    <polyline class="cls-3" points="44.164 74.602 24.063 74.602 18.979 88.182"/>
  </g>
  <path class="cls-3" d="M115.91561,101.33789l6.96352-7.36522c8.64167-9.27585,13.21694-20.29777,13.21694-31.86,0-29.63111-30.40641-53.73445-67.78146-53.73445C30.93984,8.37817.53343,32.48151.53343,62.11262c0,29.63641,30.40641,53.74722,67.78118,53.74722a83.24214,83.24214,0,0,0,23.87615-3.445l-3.64331,14.34955Z" transform="translate(3.97434)"/>
  <path class="cls-6" d="M76.33918,52.0692S79.74629,42.898,93.28663,42.898s12.22748-5.2759,12.22748-5.2759S59.70948,24.942,76.33918,52.0692Z" transform="translate(3.97434)"/>
  <path class="cls-7" d="M83.89162,5.48927c-1.44014-.10508-16.58982-.13116-7.55244,46.57993,0,0-10.50623-3.58459-10.50623-11.38371,0-5.68912-6.48815-42.53676,20.64291-38.80335L88.8296,5.49289,84.24,5.49946C84.12379,5.49962,84.0075,5.49773,83.89162,5.48927Z" transform="translate(3.97434)"/>
  <path class="cls-8" d="M84.0001,5.4998c8.05563-.282,11.54765,8.11443,11.83952,16.4541l.50791,7.23326a26.63933,26.63933,0,0,1-2.307,12.34953l.00572-.00285,1.34584,20.00173C91.61955,69.67805,81.88242,70.444,81.88242,70.444l.38915-4.39625,1.55657-17.58462c-.21674.0097-.43205.02147-.65561.02147-4.65294,0-12.5864-7.25-12.893-16.0109l-.3954-11.29826C69.59225,12.83578,75.94444,5.78174,84.0001,5.4998Z" transform="translate(3.97434)"/>
  <path class="cls-9" d="M88.76249,36.49921c-1.35563,2.70127-3.7761,5.892-7.65648,5.892-3.69192,0-4.22278-2.93131-5.87221-5.57691C81.11754,38.99663,85.85488,37.38267,88.76249,36.49921Z" transform="translate(3.97434)"/>
  <path class="cls-10" d="M86.7244,39.59873A7.39,7.39,0,0,1,81.106,42.39122a4.51524,4.51524,0,0,1-2.4863-.64144,10.81626,10.81626,0,0,1,1.19946-1.04785A6.82864,6.82864,0,0,1,86.7244,39.59873Z" transform="translate(3.97434)"/>
  <path class="cls-7" d="M81.06873,5.91225s20.21365-1.53853,10.73248,46.157c0,0,18.96438-2.85445,18.96438-17.40324,0-13.66438-3.01953-35.92-22.72568-32.7742a11.26364,11.26364,0,0,0-6.36527,3.38361Z" transform="translate(3.97434)"/>
  <path class="cls-11" d="M102.79138,35.21026,99.87481,40.175a6.9504,6.9504,0,0,1-3.3106,2.89145l-7.43834,3.11152" transform="translate(3.97434)"/>
  <path class="cls-12" d="M75.88889,2.48173S78.09712.57179,83.07312.57179c2.62075,0,7.12961.41127,10.30631,1.91659,5.95262,2.82075,8.67765,8.98056,8.9536,15.2872a22.38677,22.38677,0,0,1-.23921,4.75423c-.129.74746-1.26724.43057-1.13876-.31393a22.24519,22.24519,0,0,0-.83936-10.28467c-2.3075-6.9186-8.71365-10.02477-15.699-10.18607-.8517-.01966-1.775-.00241-2.71708.06792C81.76471,1.43159,75.88889,2.48173,75.88889,2.48173Z" transform="translate(3.97434)"/>
  <path class="cls-4" d="M95.29269,27.40008c.6985-4.81768,3.322-7.81048,6.84665-7.81048H102.14a6.67821,6.67821,0,0,1,.95406.07025,7.212,7.212,0,0,1,5.05957,3.40181,9.62678,9.62678,0,0,1,1.31907,6.55212c-.645,4.4484-4.07044,7.80292-7.96779,7.80292a6.81854,6.81854,0,0,1-.975-.07038,5.75272,5.75272,0,0,1-4.51481-3.44519A11.64677,11.64677,0,0,1,95.29269,27.40008Z" transform="translate(3.97434)"/>
  <path class="cls-4" d="M98.81924,27.66652c.52978-3.654,2.51956-5.92386,5.19286-5.92386h.00048a5.06467,5.06467,0,0,1,.7236.05328,5.46987,5.46987,0,0,1,3.83744,2.5801,7.30142,7.30142,0,0,1,1.00045,4.96947c-.48921,3.3739-3.08723,5.91814-6.04317,5.91814a5.16963,5.16963,0,0,1-.73952-.05339,4.36317,4.36317,0,0,1-3.42427-2.613A8.83342,8.83342,0,0,1,98.81924,27.66652Z" transform="translate(3.97434)"/>
  <circle class="cls-13" cx="92.2022" cy="46.17794" r="2.54396"/>
  <path class="cls-6" d="M88.09985,25.93635a17.1654,17.1654,0,0,0-2.6222.20121,2.672,2.672,0,1,1,5.2444,0A17.1652,17.1652,0,0,0,88.09985,25.93635Z" transform="translate(3.97434)"/>
  <path class="cls-6" d="M75.375,25.93635a17.1653,17.1653,0,0,0-2.6222.20121,2.672,2.672,0,1,1,5.2444,0A17.1652,17.1652,0,0,0,75.375,25.93635Z" transform="translate(3.97434)"/>
  <path class="cls-14" d="M91.75241,19.97522a7.80451,7.80451,0,0,0-6.0685-2.571" transform="translate(3.97434)"/>
  <path class="cls-14" d="M71.70988,19.97522s1.47476-2.571,5.5775-2.571" transform="translate(3.97434)"/>
  <path class="cls-15" d="M77.08035,33.31442a2.672,2.672,0,0,1,4.56135-1.88937" transform="translate(3.97434)"/>
</svg>